<svg width="65" height="29" viewBox="0 0 65 29" fill="none" xmlns="http://www.w3.org/2000/svg">
<path d="M32.866 27.5C32.4811 28.1667 31.5189 28.1667 31.134 27.5L26.8038 20C26.4189 19.3333 26.9001 18.5 27.6699 18.5H36.3301C37.0999 18.5 37.5811 19.3333 37.1962 20L32.866 27.5Z" fill="#001C54"/>
<rect width="65" height="20" rx="10" fill="#001C54"/>
<path d="M11.353 8.78125C11.3265 8.53314 11.2147 8.33996 11.0178 8.2017C10.8227 8.06345 10.5689 7.99432 10.2564 7.99432C10.0367 7.99432 9.84825 8.02746 9.69105 8.09375C9.53385 8.16004 9.41359 8.25 9.33026 8.36364C9.24692 8.47727 9.20431 8.60701 9.20241 8.75284C9.20241 8.87405 9.22988 8.97917 9.2848 9.06818C9.34162 9.1572 9.41832 9.23295 9.51491 9.29545C9.61151 9.35606 9.71851 9.4072 9.83594 9.44886C9.95336 9.49053 10.0717 9.52557 10.1911 9.55398L10.7365 9.69034C10.9562 9.74148 11.1674 9.81061 11.37 9.89773C11.5746 9.98485 11.7573 10.0947 11.9183 10.2273C12.0812 10.3598 12.21 10.5199 12.3047 10.7074C12.3994 10.8949 12.4467 11.1146 12.4467 11.3665C12.4467 11.7074 12.3596 12.0076 12.1854 12.267C12.0111 12.5246 11.7592 12.7263 11.4297 12.8722C11.102 13.0161 10.7053 13.0881 10.2393 13.0881C9.7867 13.0881 9.3937 13.018 9.06037 12.8778C8.72893 12.7377 8.46946 12.5331 8.28196 12.2642C8.09635 11.9953 7.99598 11.6676 7.98082 11.2812H9.01776C9.03291 11.4839 9.09541 11.6525 9.20526 11.7869C9.3151 11.9214 9.4581 12.0218 9.63423 12.0881C9.81226 12.1544 10.0111 12.1875 10.2308 12.1875C10.46 12.1875 10.6607 12.1534 10.8331 12.0852C11.0073 12.0152 11.1437 11.9186 11.2422 11.7955C11.3407 11.6705 11.3909 11.5246 11.3928 11.358C11.3909 11.2064 11.3464 11.0814 11.2592 10.983C11.1721 10.8826 11.05 10.7992 10.8928 10.733C10.7375 10.6648 10.5556 10.6042 10.3473 10.5511L9.68537 10.3807C9.2062 10.2576 8.82741 10.071 8.54901 9.82102C8.27249 9.56913 8.13423 9.23485 8.13423 8.81818C8.13423 8.47538 8.22704 8.17519 8.41264 7.91761C8.60014 7.66004 8.85488 7.46023 9.17685 7.31818C9.49882 7.17424 9.8634 7.10227 10.2706 7.10227C10.6835 7.10227 11.0452 7.17424 11.3558 7.31818C11.6683 7.46023 11.9136 7.65814 12.0916 7.91193C12.2696 8.16383 12.3615 8.4536 12.3672 8.78125H11.353ZM14.2784 11.6307L14.2756 10.3892H14.4403L16.0085 8.63636H17.2102L15.2812 10.7841H15.0682L14.2784 11.6307ZM13.3409 13V7.18182H14.3693V13H13.3409ZM16.0795 13L14.6591 11.0142L15.3523 10.2898L17.3097 13H16.0795ZM19.6193 13.0852C19.1932 13.0852 18.8239 12.9915 18.5114 12.804C18.1989 12.6165 17.9564 12.3542 17.7841 12.017C17.6136 11.6799 17.5284 11.286 17.5284 10.8352C17.5284 10.3845 17.6136 9.98958 17.7841 9.65057C17.9564 9.31155 18.1989 9.0483 18.5114 8.8608C18.8239 8.6733 19.1932 8.57955 19.6193 8.57955C20.0455 8.57955 20.4148 8.6733 20.7273 8.8608C21.0398 9.0483 21.2813 9.31155 21.4517 9.65057C21.6241 9.98958 21.7102 10.3845 21.7102 10.8352C21.7102 11.286 21.6241 11.6799 21.4517 12.017C21.2813 12.3542 21.0398 12.6165 20.7273 12.804C20.4148 12.9915 20.0455 13.0852 19.6193 13.0852ZM19.625 12.2614C19.8561 12.2614 20.0492 12.1979 20.2045 12.071C20.3598 11.9422 20.4754 11.7699 20.5511 11.554C20.6288 11.3381 20.6676 11.0975 20.6676 10.8324C20.6676 10.5653 20.6288 10.3239 20.5511 10.108C20.4754 9.89015 20.3598 9.71686 20.2045 9.58807C20.0492 9.45928 19.8561 9.39489 19.625 9.39489C19.3883 9.39489 19.1913 9.45928 19.0341 9.58807C18.8788 9.71686 18.7623 9.89015 18.6847 10.108C18.6089 10.3239 18.571 10.5653 18.571 10.8324C18.571 11.0975 18.6089 11.3381 18.6847 11.554C18.7623 11.7699 18.8788 11.9422 19.0341 12.071C19.1913 12.1979 19.3883 12.2614 19.625 12.2614ZM22.5831 14.6364V8.63636H23.5945V9.35795H23.6541C23.7071 9.25189 23.782 9.1392 23.8786 9.01989C23.9751 8.89867 24.1058 8.79545 24.2706 8.71023C24.4354 8.62311 24.6456 8.57955 24.9013 8.57955C25.2384 8.57955 25.5424 8.66572 25.8132 8.83807C26.0859 9.00852 26.3018 9.26136 26.4609 9.59659C26.6219 9.92992 26.7024 10.339 26.7024 10.8239C26.7024 11.303 26.6238 11.7102 26.4666 12.0455C26.3094 12.3807 26.0954 12.6364 25.8246 12.8125C25.5537 12.9886 25.2469 13.0767 24.9041 13.0767C24.6541 13.0767 24.4467 13.035 24.282 12.9517C24.1172 12.8684 23.9846 12.768 23.8842 12.6506C23.7857 12.5312 23.709 12.4186 23.6541 12.3125H23.6115V14.6364H22.5831ZM23.5916 10.8182C23.5916 11.1004 23.6314 11.3475 23.7109 11.5597C23.7924 11.7718 23.9089 11.9375 24.0604 12.0568C24.2138 12.1742 24.3994 12.233 24.6172 12.233C24.8445 12.233 25.0348 12.1723 25.1882 12.0511C25.3416 11.928 25.4571 11.7604 25.5348 11.5483C25.6143 11.3343 25.6541 11.0909 25.6541 10.8182C25.6541 10.5473 25.6153 10.3068 25.5376 10.0966C25.46 9.88636 25.3445 9.72159 25.1911 9.60227C25.0376 9.48295 24.8464 9.4233 24.6172 9.4233C24.3975 9.4233 24.2109 9.48106 24.0575 9.59659C23.9041 9.71212 23.7876 9.87405 23.7081 10.0824C23.6304 10.2907 23.5916 10.536 23.5916 10.8182ZM27.5831 13V8.63636H28.6115V13H27.5831ZM28.1001 8.01705C27.9373 8.01705 27.7971 7.96307 27.6797 7.85511C27.5623 7.74526 27.5036 7.61364 27.5036 7.46023C27.5036 7.30492 27.5623 7.1733 27.6797 7.06534C27.7971 6.95549 27.9373 6.90057 28.1001 6.90057C28.2649 6.90057 28.4051 6.95549 28.5206 7.06534C28.638 7.1733 28.6967 7.30492 28.6967 7.46023C28.6967 7.61364 28.638 7.74526 28.5206 7.85511C28.4051 7.96307 28.2649 8.01705 28.1001 8.01705ZM31.5724 13.0852C31.1463 13.0852 30.777 12.9915 30.4645 12.804C30.152 12.6165 29.9096 12.3542 29.7372 12.017C29.5668 11.6799 29.4815 11.286 29.4815 10.8352C29.4815 10.3845 29.5668 9.98958 29.7372 9.65057C29.9096 9.31155 30.152 9.0483 30.4645 8.8608C30.777 8.6733 31.1463 8.57955 31.5724 8.57955C31.9986 8.57955 32.3679 8.6733 32.6804 8.8608C32.9929 9.0483 33.2344 9.31155 33.4048 9.65057C33.5772 9.98958 33.6634 10.3845 33.6634 10.8352C33.6634 11.286 33.5772 11.6799 33.4048 12.017C33.2344 12.3542 32.9929 12.6165 32.6804 12.804C32.3679 12.9915 31.9986 13.0852 31.5724 13.0852ZM31.5781 12.2614C31.8092 12.2614 32.0024 12.1979 32.1577 12.071C32.313 11.9422 32.4285 11.7699 32.5043 11.554C32.5819 11.3381 32.6207 11.0975 32.6207 10.8324C32.6207 10.5653 32.5819 10.3239 32.5043 10.108C32.4285 9.89015 32.313 9.71686 32.1577 9.58807C32.0024 9.45928 31.8092 9.39489 31.5781 9.39489C31.3414 9.39489 31.1444 9.45928 30.9872 9.58807C30.8319 9.71686 30.7154 9.89015 30.6378 10.108C30.562 10.3239 30.5241 10.5653 30.5241 10.8324C30.5241 11.0975 30.562 11.3381 30.6378 11.554C30.7154 11.7699 30.8319 11.9422 30.9872 12.071C31.1444 12.1979 31.3414 12.2614 31.5781 12.2614ZM35.3118 13L34.0788 8.63636H35.1271L35.8942 11.7045H35.9339L36.718 8.63636H37.755L38.5391 11.6875H38.5817L39.3374 8.63636H40.3885L39.1527 13H38.0817L37.2635 10.0511H37.2038L36.3857 13H35.3118ZM42.3622 13.0881C42.0857 13.0881 41.8366 13.0388 41.6151 12.9403C41.3954 12.84 41.2211 12.6922 41.0923 12.4972C40.9654 12.3021 40.902 12.0616 40.902 11.7756C40.902 11.5294 40.9474 11.3258 41.0384 11.1648C41.1293 11.0038 41.2533 10.875 41.4105 10.7784C41.5677 10.6818 41.7448 10.6089 41.9418 10.5597C42.1406 10.5085 42.3461 10.4716 42.5582 10.4489C42.8139 10.4223 43.0213 10.3987 43.1804 10.3778C43.3395 10.3551 43.455 10.321 43.527 10.2756C43.6009 10.2282 43.6378 10.1553 43.6378 10.0568V10.0398C43.6378 9.82576 43.5743 9.66004 43.4474 9.54261C43.3205 9.42519 43.1378 9.36648 42.8991 9.36648C42.6473 9.36648 42.4474 9.4214 42.2997 9.53125C42.1539 9.6411 42.0554 9.77083 42.0043 9.92045L41.044 9.78409C41.1198 9.51894 41.2448 9.29735 41.419 9.11932C41.5933 8.93939 41.8063 8.80492 42.0582 8.71591C42.3101 8.625 42.5885 8.57955 42.8935 8.57955C43.1037 8.57955 43.313 8.60417 43.5213 8.65341C43.7296 8.70265 43.92 8.78409 44.0923 8.89773C44.2647 9.00947 44.4029 9.16193 44.5071 9.35511C44.6132 9.5483 44.6662 9.78977 44.6662 10.0795V13H43.6776V12.4006H43.6435C43.581 12.5218 43.4929 12.6354 43.3793 12.7415C43.2675 12.8456 43.1264 12.9299 42.956 12.9943C42.7874 13.0568 42.5895 13.0881 42.3622 13.0881ZM42.6293 12.3324C42.8357 12.3324 43.0147 12.2917 43.1662 12.2102C43.3177 12.1269 43.4342 12.017 43.5156 11.8807C43.599 11.7443 43.6406 11.5956 43.6406 11.4347V10.9205C43.6084 10.947 43.5535 10.9716 43.4759 10.9943C43.4001 11.017 43.3149 11.0369 43.2202 11.054C43.1255 11.071 43.0317 11.0862 42.9389 11.0994C42.8461 11.1127 42.7656 11.1241 42.6974 11.1335C42.544 11.1544 42.4067 11.1884 42.2855 11.2358C42.1643 11.2831 42.0687 11.3494 41.9986 11.4347C41.9285 11.518 41.8935 11.6259 41.8935 11.7585C41.8935 11.9479 41.9626 12.0909 42.1009 12.1875C42.2391 12.2841 42.4152 12.3324 42.6293 12.3324ZM46.7287 10.4432V13H45.7003V8.63636H46.6832V9.37784H46.7344C46.8348 9.13352 46.9948 8.93939 47.2145 8.79545C47.4361 8.65152 47.7098 8.57955 48.0355 8.57955C48.3366 8.57955 48.599 8.64394 48.8224 8.77273C49.0478 8.90152 49.2221 9.08807 49.3452 9.33239C49.4702 9.5767 49.5317 9.87311 49.5298 10.2216V13H48.5014V10.3807C48.5014 10.089 48.4257 9.8608 48.2741 9.69602C48.1245 9.53125 47.9171 9.44886 47.652 9.44886C47.4721 9.44886 47.312 9.48864 47.1719 9.56818C47.0336 9.64583 46.9247 9.75852 46.8452 9.90625C46.7675 10.054 46.7287 10.233 46.7287 10.4432ZM52.4787 13.0852C52.0526 13.0852 51.6832 12.9915 51.3707 12.804C51.0582 12.6165 50.8158 12.3542 50.6435 12.017C50.473 11.6799 50.3878 11.286 50.3878 10.8352C50.3878 10.3845 50.473 9.98958 50.6435 9.65057C50.8158 9.31155 51.0582 9.0483 51.3707 8.8608C51.6832 8.6733 52.0526 8.57955 52.4787 8.57955C52.9048 8.57955 53.2741 8.6733 53.5866 8.8608C53.8991 9.0483 54.1406 9.31155 54.3111 9.65057C54.4834 9.98958 54.5696 10.3845 54.5696 10.8352C54.5696 11.286 54.4834 11.6799 54.3111 12.017C54.1406 12.3542 53.8991 12.6165 53.5866 12.804C53.2741 12.9915 52.9048 13.0852 52.4787 13.0852ZM52.4844 12.2614C52.7154 12.2614 52.9086 12.1979 53.0639 12.071C53.2192 11.9422 53.3348 11.7699 53.4105 11.554C53.4882 11.3381 53.527 11.0975 53.527 10.8324C53.527 10.5653 53.4882 10.3239 53.4105 10.108C53.3348 9.89015 53.2192 9.71686 53.0639 9.58807C52.9086 9.45928 52.7154 9.39489 52.4844 9.39489C52.2476 9.39489 52.0507 9.45928 51.8935 9.58807C51.7382 9.71686 51.6217 9.89015 51.544 10.108C51.4683 10.3239 51.4304 10.5653 51.4304 10.8324C51.4304 11.0975 51.4683 11.3381 51.544 11.554C51.6217 11.7699 51.7382 11.9422 51.8935 12.071C52.0507 12.1979 52.2476 12.2614 52.4844 12.2614ZM56.701 7.18182L56.6072 11.2898H55.6925L55.6016 7.18182H56.701ZM56.1499 13.0625C55.9775 13.0625 55.8298 13.0019 55.7067 12.8807C55.5855 12.7595 55.5249 12.6117 55.5249 12.4375C55.5249 12.267 55.5855 12.1212 55.7067 12C55.8298 11.8788 55.9775 11.8182 56.1499 11.8182C56.3184 11.8182 56.4643 11.8788 56.5874 12C56.7124 12.1212 56.7749 12.267 56.7749 12.4375C56.7749 12.553 56.7455 12.6581 56.6868 12.7528C56.63 12.8475 56.5542 12.9233 56.4595 12.9801C56.3667 13.035 56.2635 13.0625 56.1499 13.0625Z" fill="white"/>
</svg>
