<svg width="33" height="33" viewBox="0 0 33 33" fill="none" xmlns="http://www.w3.org/2000/svg">
<path d="M33 14.773H22.9472L31.6529 9.746L29.9265 6.754L21.2196 11.781L26.245 3.0745L23.2539 1.3475L18.2275 10.0518V0H14.7725V10.0529L9.74605 1.3475L6.75395 3.0745L11.7793 11.7788L3.07458 6.754L1.34705 9.746L10.0528 14.773H0V18.2281H10.0517L1.34705 23.2551L3.07348 26.2471L11.7804 21.2201L6.75395 29.9266L9.74495 31.6536L14.7725 22.9482V33H18.2275V22.7326L23.3463 31.5986L26.1515 29.9794L21.0316 21.1112L29.9243 26.246L31.6518 23.254L22.9472 18.227H32.9989V14.773H33V14.773ZM16.5 21.197C15.8832 21.1971 15.2725 21.0756 14.7027 20.8396C14.1328 20.6036 13.6151 20.2576 13.1789 19.8213C12.7427 19.3851 12.3967 18.8673 12.1606 18.2973C11.9245 17.7273 11.803 17.1164 11.8029 16.4995C11.8028 15.8825 11.9243 15.2716 12.1602 14.7015C12.3962 14.1315 12.742 13.6135 13.1781 13.1772C13.6142 12.7409 14.1319 12.3948 14.7017 12.1586C15.2714 11.9225 15.8821 11.8009 16.4989 11.8008C17.7445 11.8007 18.9391 12.2955 19.82 13.1765C20.7009 14.0574 21.1958 15.2523 21.196 16.4984C21.1961 17.7444 20.7015 18.9394 19.8208 19.8206C18.9401 20.7017 17.7456 21.1969 16.5 21.197V21.197Z" fill="#625DF5"/>
</svg>
